<svg width="134" height="91" viewBox="0 0 134 91" fill="none" xmlns="http://www.w3.org/2000/svg">
<path d="M90.943 73.8184C84.5737 72.2561 74.9896 69.2517 62.1908 64.8051C60.8689 64.3244 59.8774 63.7236 59.2164 63.0025C58.5555 62.2814 58.1649 61.6505 58.0447 61.1097C57.9246 60.5088 57.8645 59.6676 57.8645 58.586V44.7845H52.0059V56.513C51.9458 58.1353 51.3449 59.4873 50.2032 60.5689C49.1216 61.6505 47.7997 62.1913 46.2374 62.1913H45.0657V63.0926C49.2118 63.1527 54.4995 64.6249 60.929 67.5091C62.7316 68.2903 67.3884 70.5436 74.8995 74.269C84.6338 79.016 93.3165 81.3895 100.948 81.3895C108.399 81.3895 115.79 78.8658 123.12 73.8184L122.67 73.0973C117.141 75.2004 112.064 76.2519 107.437 76.2519C102.871 76.2519 97.3725 75.4408 90.943 73.8184Z" fill="white"/>
<path d="M52.0059 41.9679H57.8645V6.57966C57.8645 5.01737 58.4353 3.69543 59.577 2.61384C60.7187 1.47216 62.0706 0.901322 63.6329 0.901322H64.8047V0H45.0657V0.901322H46.2374C47.7997 0.901322 49.1216 1.47216 50.2032 2.61384C51.3449 3.69543 51.9458 5.01737 52.0059 6.57966V41.9679Z" fill="white"/>
<path fill-rule="evenodd" clip-rule="evenodd" d="M63.3289 29.3723C59.2429 31.2951 56.3286 34.8103 54.5861 39.9178L55.5775 40.2783C56.4788 38.6559 57.3501 37.334 58.1914 36.3125C59.0326 35.2309 60.2644 34.1192 61.8868 32.9776C65.0114 30.8144 70.3292 29.6427 77.8402 29.4624V41.968H83.6988V29.4624H101.455C106.502 29.4624 110.949 30.6642 114.794 33.0677C118.31 35.2312 121.095 38.1979 123.151 41.968H129.706C129.693 41.9455 129.68 41.9231 129.666 41.9007C126.962 37.1537 123.177 33.4883 118.31 30.9045C113.442 28.3207 107.824 26.9387 101.455 26.7584C92.682 26.5782 87.214 26.488 85.0508 26.488C74.6555 26.488 67.4149 27.4494 63.3289 29.3723ZM131.149 44.7846H124.516C126.207 48.7512 127.052 53.2579 127.052 58.3047C127.052 66.9574 124.679 73.9277 119.932 79.2154C115.245 84.5032 109.086 87.1471 101.455 87.1471H83.6988V44.7846H77.8402V83.8122C77.6599 85.2543 77.029 86.4861 75.9474 87.5076C74.8658 88.469 73.5739 88.9497 72.0717 88.9497H70.9901L70.9 89.8511H101.455C111.069 89.8511 118.85 86.9668 124.799 81.1983C130.808 75.3698 133.812 67.7386 133.812 58.3047C133.812 53.2963 132.925 48.7896 131.149 44.7846Z" fill="white"/>
<path fill-rule="evenodd" clip-rule="evenodd" d="M19.739 74.8661H18.5673C17.005 74.8661 15.653 74.3253 14.5113 73.2437C13.3696 72.1021 12.7988 70.7501 12.7988 69.1878V44.7843H6.94019V69.1878C6.8801 70.7501 6.27922 72.1021 5.13754 73.2437C4.05595 74.3253 2.73401 74.8661 1.17172 74.8661H0V75.7674H19.739V74.8661ZM6.94019 41.9676V19.1643C6.8801 17.602 6.27922 16.2801 5.13754 15.1985C4.05595 14.1169 2.73401 13.5761 1.17172 13.5761H0V12.6748H19.739V13.5761H18.5673C17.005 13.5761 15.653 14.1169 14.5113 15.1985C13.4297 16.2801 12.8589 17.602 12.7988 19.1643V41.9676H6.94019ZM17.6235 41.9676L36.9542 17.7222C37.435 17.1213 37.6753 16.5805 37.6753 16.0998C37.6753 15.6191 37.5852 15.1985 37.4049 14.838C36.9242 13.9367 36.0529 13.486 34.7911 13.486H33.8897V12.6748H52.9077V13.486H52.5471C48.5813 13.486 45.3365 14.8981 42.8128 17.7222L21.8122 41.9676H17.6235ZM16.042 44.7843H24.45L52.457 74.6858C56.4228 78.9521 60.8693 82.4372 65.7966 85.1412C70.7839 87.9053 75.8614 89.2873 81.0289 89.2873V90.1886C78.7456 90.7294 76.4622 90.9998 74.1789 90.9998C64.3244 90.9998 54.7704 86.0726 45.5168 76.2181L16.042 44.7843Z" fill="white"/>
</svg>
