<svg width="65" height="44" viewBox="0 0 65 44" fill="none" xmlns="http://www.w3.org/2000/svg">
<path d="M43.9725 35.6925C40.8928 34.9371 36.2588 33.4844 30.0703 31.3344C29.4312 31.102 28.9518 30.8114 28.6322 30.4628C28.3126 30.1141 28.1237 29.8091 28.0656 29.5476C28.0075 29.2571 27.9785 28.8503 27.9785 28.3273V21.6541H25.1457V27.325C25.1167 28.1094 24.8261 28.7632 24.2741 29.2861C23.7512 29.8091 23.112 30.0706 22.3566 30.0706H21.79V30.5064C23.7947 30.5354 26.3515 31.2472 29.4602 32.6418C30.3318 33.0195 32.5835 34.109 36.2152 35.9104C40.9219 38.2056 45.1202 39.3532 48.81 39.3532C52.4126 39.3532 55.9862 38.133 59.5308 35.6925L59.3129 35.3438C56.6399 36.3607 54.1849 36.8691 51.9478 36.8691C49.7397 36.8691 47.0813 36.4769 43.9725 35.6925Z" fill="#494949"/>
<path d="M25.1457 20.2922H27.9785V3.18138C27.9785 2.42598 28.2545 1.7868 28.8065 1.26384C29.3585 0.711816 30.0122 0.435805 30.7676 0.435805H31.3342V0H21.79V0.435805H22.3566C23.112 0.435805 23.7512 0.711816 24.2741 1.26384C24.8261 1.7868 25.1167 2.42598 25.1457 3.18138V20.2922Z" fill="#494949"/>
<path fill-rule="evenodd" clip-rule="evenodd" d="M30.6206 14.2019C28.645 15.1316 27.2359 16.8312 26.3933 19.3008L26.8727 19.4751C27.3085 18.6907 27.7298 18.0515 28.1365 17.5576C28.5433 17.0346 29.1389 16.4971 29.9233 15.9451C31.4341 14.8991 34.0054 14.3326 37.6371 14.2454V20.2921H40.4698V14.2454H49.0552C51.4957 14.2454 53.6457 14.8265 55.5051 15.9887C57.205 17.0347 58.5518 18.4692 59.5454 20.2921H62.7151C62.7087 20.2813 62.7023 20.2704 62.6959 20.2596C61.3885 17.9643 59.5581 16.192 57.2048 14.9427C54.8514 13.6934 52.1349 13.0252 49.0552 12.938C44.8134 12.8509 42.1695 12.8073 41.1235 12.8073C36.0972 12.8073 32.5963 13.2721 30.6206 14.2019ZM63.4129 21.654H60.2057C61.0233 23.5719 61.4321 25.751 61.4321 28.1912C61.4321 32.3749 60.2844 35.7452 57.9892 38.3019C55.723 40.8586 52.745 42.137 49.0552 42.137H40.4698V21.654H37.6371V40.5245C37.5499 41.2218 37.2449 41.8174 36.7219 42.3113C36.1989 42.7762 35.5743 43.0086 34.8479 43.0086H34.325L34.2814 43.4444H49.0552C53.7038 43.4444 57.4662 42.0498 60.3425 39.2607C63.2479 36.4425 64.7006 32.7526 64.7006 28.1912C64.7006 25.7695 64.2714 23.5905 63.4129 21.654Z" fill="#494949"/>
<path fill-rule="evenodd" clip-rule="evenodd" d="M9.54414 36.1991H8.97759C8.22219 36.1991 7.56848 35.9376 7.01647 35.4147C6.46444 34.8626 6.18843 34.2089 6.18843 33.4535V21.6541H3.3557V33.4535C3.32665 34.2089 3.03611 34.8626 2.48409 35.4147C1.96112 35.9376 1.32194 36.1991 0.566547 36.1991H0V36.6349H9.54414V36.1991ZM3.3557 20.2922V9.26634C3.32665 8.51094 3.03611 7.87176 2.48409 7.34879C1.96112 6.82583 1.32194 6.56434 0.566547 6.56434H0V6.12854H9.54414V6.56434H8.97759C8.22219 6.56434 7.56848 6.82583 7.01647 7.34879C6.4935 7.87176 6.21749 8.51094 6.18843 9.26634V20.2922H3.3557ZM8.52118 20.2922L17.868 8.56905C18.1004 8.27851 18.2167 8.01703 18.2167 7.7846C18.2167 7.55217 18.1731 7.3488 18.0859 7.17447C17.8535 6.73867 17.4322 6.52076 16.8221 6.52076H16.3863V6.12854H25.5818V6.52076H25.4074C23.4899 6.52076 21.921 7.20353 20.7008 8.56905L10.5465 20.2922H8.52118ZM7.75667 21.6541H11.8221L25.3639 36.1119C27.2814 38.1748 29.4314 39.8599 31.8138 41.1673C34.2252 42.5038 36.6803 43.172 39.1789 43.172V43.6078C38.0749 43.8693 36.9708 44 35.8668 44C31.102 44 26.4824 41.6176 22.0082 36.8528L7.75667 21.6541Z" fill="#494949"/>
</svg>
